# Blender v2.93.5 OBJ File: 'Fighter.blend'
# www.blender.org
mtllib Fighter.mtl
o Cylinder.001
v -0.009123 0.245845 0.733955
v -0.009124 0.292392 0.473629
v -0.261302 0.244277 0.733955
v -0.277373 0.290725 0.473629
v -0.349557 0.089985 0.733955
v -0.378450 0.114015 0.473629
v -0.348897 -0.069061 0.733955
v -0.374953 -0.062363 0.473629
v -0.009123 -0.061605 0.473629
v 0.330650 -0.069061 0.733955
v 0.356706 -0.062363 0.473629
v 0.331310 0.089985 0.733955
v 0.360203 0.114015 0.473629
v 0.243055 0.244277 0.733955
v 0.259126 0.290725 0.473629
v -0.314313 0.335019 0.473629
v -0.009124 0.336917 0.473629
v -0.440727 0.114015 0.473629
v -0.439810 -0.106990 0.473629
v -0.009123 -0.106129 0.473629
v 0.421563 -0.106990 0.473629
v 0.422480 0.114015 0.473629
v 0.296066 0.335019 0.473629
v -0.279325 0.291648 -0.221905
v -0.009124 0.292319 -0.219494
v -0.374541 0.114015 -0.214900
v -0.377619 -0.063234 -0.221869
v 0.359372 -0.063234 -0.221870
v 0.356294 0.114015 -0.214900
v 0.261078 0.291648 -0.221905
v 0.063075 -0.065367 -1.000117
v -0.009124 -0.062629 -0.997827
v -0.081322 -0.065367 -1.000117
v 0.064196 0.114926 -0.939763
v -0.009124 0.117666 -0.938452
v -0.082444 0.114926 -0.939763
v -0.009124 0.075587 -0.997827
v -0.081322 0.072849 -1.000117
v 0.063075 0.072849 -1.000117
v -0.251394 0.114269 -0.349604
v 0.233147 0.114269 -0.349604
v -0.200084 0.247596 -0.221905
v -0.009124 0.248267 -0.219494
v 0.181837 0.247596 -0.221905
v -0.249653 0.118906 -0.221905
v 0.231405 0.118906 -0.221905
v -0.295759 -0.250773 0.473629
v -0.258200 -0.159590 0.733955
v -0.009123 -0.158841 0.733955
v -0.009123 -0.249912 0.473629
v 0.239953 -0.159590 0.733955
v 0.277512 -0.250773 0.473629
v -0.009123 -0.196846 0.638915
v -0.271308 -0.197604 0.638915
v 0.253061 -0.197604 0.638915
v -0.009124 -0.196879 -0.219312
v -0.273219 -0.198475 -0.221603
v 0.254972 -0.198475 -0.221603
v -0.060867 -0.133318 -0.999850
v -0.009124 -0.134160 -0.997560
v 0.042620 -0.133318 -0.999850
v -0.260119 -0.064080 -0.679852
v 0.241872 -0.064080 -0.679852
v -0.258262 0.097690 -0.675646
v 0.240014 0.097690 -0.675647
v -0.184395 0.114529 -0.732999
v 0.166148 0.114529 -0.732999
v -0.189008 -0.172636 -0.679585
v -0.009124 -0.172007 -0.677295
v 0.170761 -0.172636 -0.679586
v 0.064196 0.187679 -0.853248
v -0.009124 0.190418 -0.851937
v -0.082444 0.187679 -0.853248
v -0.184395 0.232155 -0.693449
v 0.166148 0.232155 -0.693449
v -0.200084 0.252548 -0.441080
v -0.009124 0.253219 -0.438669
v 0.181837 0.252548 -0.441080
v -0.009123 0.336917 0.733955
v -0.314313 0.335020 0.733955
v -0.440727 0.114015 0.733955
v -0.439810 -0.106990 0.733955
v 0.421563 -0.106990 0.733955
v 0.277512 -0.250773 0.733955
v 0.422480 0.114015 0.733955
v 0.296067 0.335020 0.733955
v -0.295759 -0.250773 0.733955
v -0.009123 -0.249912 0.733955
v -0.348897 -0.069061 0.613045
v -0.009123 -0.106129 0.613045
v 0.330650 -0.069061 0.613045
v -0.009123 -0.158841 0.613045
v -0.009123 0.245845 0.613045
v -0.261302 0.244277 0.613045
v -0.349557 0.089985 0.613045
v 0.239953 -0.159590 0.613045
v 0.331310 0.089985 0.613045
v 0.243055 0.244277 0.613045
v -0.258200 -0.159590 0.613045
vt 0.663470 0.707614
vt 0.743356 0.707614
vt 0.743356 0.801269
vt 0.663470 0.801269
vt 0.523040 0.873100
vt 0.523040 0.793214
vt 0.601170 0.793214
vt 0.601170 0.873100
vt 0.766587 0.898691
vt 0.766587 0.818805
vt 0.834407 0.818805
vt 0.834407 0.898691
vt 0.172626 0.876182
vt 0.172626 0.953569
vt 0.135523 0.953569
vt 0.135523 0.876182
vt 0.725927 0.824501
vt 0.725927 0.904386
vt 0.663470 0.904386
vt 0.663470 0.824500
vt 0.236885 0.897384
vt 0.236884 0.817498
vt 0.304704 0.817498
vt 0.304704 0.897384
vt 0.736823 0.396974
vt 0.674358 0.396962
vt 0.674982 0.185674
vt 0.736823 0.183537
vt 0.135523 0.852950
vt 0.135523 0.773065
vt 0.213653 0.773065
vt 0.213653 0.852950
vt 0.236884 0.700612
vt 0.316770 0.700612
vt 0.316770 0.794267
vt 0.236884 0.794267
vt 0.700574 0.927617
vt 0.700574 0.966941
vt 0.663470 0.966941
vt 0.663470 0.927617
vt 0.025279 0.144061
vt 0.025791 0.226378
vt 0.012198 0.237714
vt 0.011616 0.144061
vt 0.080017 0.257396
vt 0.080017 0.276507
vt 0.134142 0.256323
vt 0.147836 0.276225
vt 0.133909 0.144061
vt 0.147572 0.144061
vt 0.134142 0.031800
vt 0.147836 0.011897
vt 0.080017 0.030727
vt 0.080017 0.011616
vt 0.025791 0.061744
vt 0.012198 0.050408
vt 0.771101 0.650717
vt 0.771101 0.672900
vt 0.749167 0.672071
vt 0.750027 0.656199
vt 0.159527 0.536408
vt 0.213653 0.536407
vt 0.213653 0.747695
vt 0.159262 0.749834
vt 0.159860 0.299738
vt 0.242179 0.299738
vt 0.242179 0.512435
vt 0.159262 0.513175
vt 0.348326 0.513175
vt 0.266008 0.513175
vt 0.265410 0.299738
vt 0.348326 0.300478
vt 0.066007 0.745332
vt 0.011881 0.745331
vt 0.011616 0.531905
vt 0.066007 0.534044
vt 0.598868 0.396965
vt 0.598699 0.183537
vt 0.651127 0.183648
vt 0.651127 0.447715
vt 0.663470 0.470958
vt 0.725935 0.470946
vt 0.725935 0.684383
vt 0.664094 0.682246
vt 0.332212 0.934225
vt 0.354378 0.935065
vt 0.354378 0.977479
vt 0.332212 0.976639
vt 0.961416 0.680501
vt 0.939249 0.681341
vt 0.939249 0.638927
vt 0.961416 0.638086
vt 0.825632 0.319030
vt 0.825632 0.431292
vt 0.760097 0.431206
vt 0.760055 0.350750
vt 0.839016 0.134337
vt 0.839016 0.156519
vt 0.817941 0.151037
vt 0.817081 0.135165
vt 0.640692 0.032176
vt 0.640692 0.139746
vt 0.523040 0.160306
vt 0.523040 0.011616
vt 0.341163 0.819752
vt 0.348401 0.706316
vt 0.390812 0.706170
vt 0.390812 0.818727
vt 0.866274 0.471972
vt 0.866274 0.584529
vt 0.823863 0.584382
vt 0.816625 0.470946
vt 0.696872 0.442785
vt 0.674358 0.443253
vt 0.674702 0.420924
vt 0.696872 0.420205
vt 0.089238 0.711677
vt 0.111752 0.712145
vt 0.111752 0.734725
vt 0.089581 0.734006
vt 0.626960 0.845055
vt 0.625823 0.774403
vt 0.640096 0.757245
vt 0.640096 0.870861
vt 0.897689 0.639309
vt 0.889505 0.520192
vt 0.916018 0.470946
vt 0.916018 0.616824
vt 0.980304 0.011616
vt 0.980304 0.079077
vt 0.958166 0.047683
vt 0.111876 0.768564
vt 0.111876 0.851484
vt 0.098358 0.851450
vt 0.098296 0.792846
vt 0.209438 0.876182
vt 0.209438 0.959102
vt 0.195858 0.934820
vt 0.195920 0.876215
vt 0.967071 0.532823
vt 0.939249 0.532823
vt 0.966123 0.470946
vt 0.896217 0.961093
vt 0.868399 0.899634
vt 0.896217 0.899208
vt 0.265088 0.979415
vt 0.236884 0.947864
vt 0.265088 0.920615
vt 0.843569 0.921922
vt 0.843569 0.977929
vt 0.816694 0.949369
vt 0.793462 0.921922
vt 0.793462 0.977929
vt 0.766587 0.950482
vt 0.393695 0.504046
vt 0.371558 0.467979
vt 0.393695 0.436586
vt 0.967452 0.556055
vt 0.967452 0.614855
vt 0.939249 0.587606
vt 0.418762 0.750415
vt 0.498647 0.750415
vt 0.498647 0.838375
vt 0.418762 0.838375
vt 0.846473 0.795574
vt 0.766587 0.795574
vt 0.766587 0.707614
vt 0.846473 0.707614
vt 0.191695 0.144061
vt 0.191959 0.232020
vt 0.848864 0.398916
vt 0.848864 0.319030
vt 0.911321 0.319030
vt 0.911321 0.398916
vt 0.191959 0.056102
vt 0.071950 0.948172
vt 0.071950 0.899365
vt 0.109053 0.899365
vt 0.109053 0.948172
vt 0.419352 0.298913
vt 0.499809 0.298913
vt 0.499809 0.562275
vt 0.418765 0.562978
vt 0.499809 0.275681
vt 0.419352 0.275681
vt 0.418765 0.011616
vt 0.499809 0.012319
vt 0.872286 0.111105
vt 0.817081 0.111105
vt 0.855191 0.011616
vt 0.871077 0.012150
vt 0.904069 0.283027
vt 0.848864 0.283027
vt 0.850074 0.184072
vt 0.865960 0.183537
vt 0.523040 0.447715
vt 0.523209 0.234287
vt 0.575468 0.183537
vt 0.575468 0.447604
vt 0.754113 0.156154
vt 0.741562 0.011616
vt 0.793850 0.015041
vt 0.793850 0.158147
vt 0.825632 0.183537
vt 0.825632 0.295799
vt 0.760055 0.264080
vt 0.760097 0.183623
vt 0.600679 0.734013
vt 0.618631 0.622957
vt 0.640096 0.623203
vt 0.640096 0.729679
vt 0.341163 0.682938
vt 0.353714 0.538400
vt 0.393451 0.536407
vt 0.393451 0.679513
vt 0.913470 0.122673
vt 0.895518 0.011616
vt 0.934935 0.015950
vt 0.934935 0.122426
vt 0.499809 0.727184
vt 0.418762 0.727184
vt 0.419934 0.586441
vt 0.475140 0.586210
vt 0.317931 0.677381
vt 0.236884 0.677381
vt 0.261554 0.536407
vt 0.316759 0.536638
vt 0.371558 0.396196
vt 0.372695 0.325544
vt 0.385831 0.299738
vt 0.385831 0.413354
vt 0.869704 0.826731
vt 0.877888 0.707614
vt 0.896217 0.730099
vt 0.896217 0.875977
vt 0.718330 0.013550
vt 0.718330 0.158642
vt 0.668683 0.157446
vt 0.663923 0.011616
vt 0.523040 0.769983
vt 0.527800 0.624153
vt 0.577448 0.622957
vt 0.577448 0.768049
vt 0.012013 0.822349
vt 0.011616 0.799849
vt 0.075065 0.768564
vt 0.075065 0.876134
vt 0.011616 0.844849
vt 0.932408 0.904929
vt 0.952653 0.877357
vt 0.952653 0.817887
vt 0.919448 0.835622
vt 0.441265 0.987535
vt 0.441265 0.952847
vt 0.418762 0.953696
vt 0.418762 0.988384
vt 0.919448 0.776922
vt 0.952653 0.794656
vt 0.952653 0.735187
vt 0.932408 0.707614
vt 0.958166 0.102308
vt 0.958166 0.136996
vt 0.980669 0.137845
vt 0.980669 0.103157
vt 0.477362 0.928881
vt 0.418762 0.929616
vt 0.418762 0.862341
vt 0.477362 0.861606
vt 0.332212 0.842983
vt 0.390812 0.843718
vt 0.390812 0.910993
vt 0.332212 0.910259
vt 0.749167 0.590035
vt 0.751169 0.470946
vt 0.786641 0.483001
vt 0.793394 0.560543
vt 0.793394 0.627486
vt 0.091240 0.688445
vt 0.089238 0.569357
vt 0.133465 0.531906
vt 0.133465 0.598849
vt 0.126712 0.676391
vt 0.581640 0.599211
vt 0.604139 0.599725
vt 0.635425 0.549274
vt 0.640239 0.471707
vt 0.581640 0.470946
vt 0.523040 0.471707
vt 0.527854 0.549274
vt 0.559140 0.599725
vt 0.243618 0.066676
vt 0.243137 0.144061
vt 0.215190 0.144061
vt 0.215772 0.050408
vt 0.290966 0.039593
vt 0.283592 0.011616
vt 0.339772 0.039795
vt 0.351411 0.011897
vt 0.339772 0.248327
vt 0.367552 0.220495
vt 0.395534 0.232020
vt 0.351411 0.276225
vt 0.290966 0.248529
vt 0.283592 0.276507
vt 0.243618 0.221447
vt 0.215772 0.237714
vt 0.367323 0.144061
vt 0.367552 0.067628
vt 0.395534 0.056102
vt 0.395269 0.144061
vt 0.108250 0.508472
vt 0.119625 0.404206
vt 0.135801 0.404206
vt 0.136031 0.480640
vt 0.011616 0.404206
vt 0.012097 0.326820
vt 0.059444 0.299738
vt 0.108250 0.299940
vt 0.059444 0.508674
vt 0.012097 0.481592
vt 0.136031 0.327772
vt 0.956552 0.928161
vt 0.956552 0.967485
vt 0.919448 0.967485
vt 0.919448 0.928161
vt 0.927300 0.260924
vt 0.927300 0.183537
vt 0.964404 0.183537
vt 0.964404 0.260924
vt 0.816625 0.684194
vt 0.816625 0.607760
vt 0.853728 0.607760
vt 0.853728 0.684194
vt 0.048719 0.899365
vt 0.048719 0.948172
vt 0.011616 0.948172
vt 0.011616 0.899365
vt 0.523040 0.950877
vt 0.523040 0.896331
vt 0.560143 0.896331
vt 0.560143 0.950877
vt 0.934552 0.395464
vt 0.934552 0.319030
vt 0.971655 0.319030
vt 0.971655 0.395464
vt 0.620478 0.896331
vt 0.620478 0.950877
vt 0.583374 0.950877
vt 0.583374 0.896331
vn -0.0062 1.0000 -0.0000
vn -0.8680 0.4965 -0.0000
vn -1.0000 -0.0041 0.0000
vn -0.0062 -1.0000 -0.0000
vn 0.7064 -0.7078 0.0000
vn 1.0000 -0.0041 0.0000
vn 0.8748 0.4846 -0.0009
vn 0.8680 0.4965 -0.0000
vn 0.0062 1.0000 -0.0000
vn 0.7064 0.7078 -0.0000
vn -0.0000 -0.0000 -1.0000
vn 0.0369 0.0016 -0.9993
vn -1.0000 -0.0012 -0.0009
vn -0.0043 1.0000 0.0006
vn 0.0043 1.0000 0.0006
vn 1.0000 -0.0012 -0.0009
vn -0.7935 -0.6085 0.0030
vn -0.8748 0.4846 -0.0009
vn -0.0317 0.0000 -0.9995
vn 0.0317 0.0000 -0.9995
vn 0.0019 0.7737 0.6336
vn -0.0369 0.0016 -0.9993
vn 0.0000 1.0000 0.0007
vn -0.8753 0.0122 -0.4834
vn 0.8753 0.0122 -0.4834
vn -0.0166 0.8179 -0.5751
vn 0.0166 0.8179 -0.5751
vn -0.5833 0.7376 -0.3402
vn 0.1323 0.9901 -0.0476
vn 0.0568 0.0219 -0.9981
vn 0.0104 0.0094 -0.9999
vn -0.0104 0.0094 -0.9999
vn -0.0169 -0.0304 -0.9994
vn 0.0169 -0.0304 -0.9994
vn 0.9332 0.3594 -0.0003
vn 0.0411 0.9985 -0.0357
vn -0.0411 0.9985 -0.0357
vn -0.0568 0.0219 -0.9981
vn -0.9332 0.3594 -0.0003
vn 0.0030 -1.0000 0.0000
vn -0.0030 -1.0000 0.0000
vn -0.7064 -0.7078 0.0000
vn 1.0000 0.0041 0.0000
vn -0.0045 -1.0000 0.0005
vn 0.0045 -1.0000 0.0005
vn 0.0014 -0.9929 -0.1193
vn -0.0014 -0.9929 -0.1193
vn 0.7935 -0.6085 0.0030
vn 0.7964 -0.5738 -0.1910
vn -0.0019 0.7737 0.6336
vn -0.8082 -0.4205 -0.4123
vn -0.7964 -0.5738 -0.1910
vn 0.8082 -0.4205 -0.4123
vn -0.0056 -0.9985 -0.0548
vn 0.0056 -0.9985 -0.0548
vn 0.5833 0.7376 -0.3402
vn -0.1323 0.9901 -0.0476
vn 0.9688 0.0222 -0.2469
vn -0.9688 0.0222 -0.2469
vn 0.0000 1.0000 0.0058
vn 0.8097 0.3240 -0.4893
vn 0.0171 0.7652 -0.6435
vn -0.8097 0.3240 -0.4893
vn -0.0171 0.7652 -0.6435
vn -0.0038 0.9997 0.0226
vn 0.0038 0.9997 0.0226
vn 0.9708 0.2208 -0.0942
vn -0.9708 0.2208 -0.0942
vn 0.0000 0.9904 -0.1379
vn -0.0000 0.0000 1.0000
vn -0.7064 0.7078 0.0000
vn 0.0062 -1.0000 0.0000
vn -0.0030 1.0000 0.0000
vn -1.0000 0.0041 0.0000
vn 0.8680 -0.4965 0.0000
vn 0.0030 1.0000 -0.0000
vn -0.8680 -0.4965 0.0000
usemtl Material.003
s off
f 79/1/1 17/2/1 16/3/1 80/4/1
f 80/5/2 16/6/2 18/7/2 81/8/2
f 81/9/3 18/10/3 19/11/3 82/12/3
f 14/13/4 1/14/4 93/15/4 98/16/4
f 21/17/5 83/18/5 84/19/5 52/20/5
f 83/21/6 21/22/6 22/23/6 85/24/6
f 15/25/7 13/26/7 29/27/7 30/28/7
f 85/29/8 22/30/8 23/31/8 86/32/8
f 86/33/9 23/34/9 17/35/9 79/36/9
f 7/37/10 48/38/10 99/39/10 89/40/10
f 2/41/11 4/42/11 16/43/11 17/44/11
f 4/42/11 6/45/11 18/46/11 16/43/11
f 6/45/11 8/47/11 19/48/11 18/46/11
f 8/47/11 9/49/11 20/50/11 19/48/11
f 9/49/11 11/51/11 21/52/11 20/50/11
f 11/51/11 13/53/11 22/54/11 21/52/11
f 13/53/11 15/55/11 23/56/11 22/54/11
f 15/55/11 2/41/11 17/44/11 23/56/11
f 33/57/12 32/58/12 60/59/12 59/60/12
f 8/61/13 6/62/13 26/63/13 27/64/13
f 4/65/14 2/66/14 25/67/14 24/68/14
f 2/69/15 15/70/15 30/71/15 25/72/15
f 13/73/16 11/74/16 28/75/16 29/76/16
f 8/77/17 27/78/17 57/79/17 54/80/17
f 6/81/18 4/82/18 24/83/18 26/84/18
f 31/85/19 32/86/19 37/87/19 39/88/19
f 32/89/20 33/90/20 38/91/20 37/92/20
f 11/93/21 9/94/21 53/95/21 55/96/21
f 32/97/22 31/98/22 61/99/22 60/100/22
f 67/101/23 66/102/23 40/103/23 41/104/23
f 64/105/24 38/106/24 33/107/24 62/108/24
f 63/109/25 31/110/25 39/111/25 65/112/25
f 36/113/26 35/114/26 37/115/26 38/116/26
f 35/117/27 34/118/27 39/119/27 37/120/27
f 66/121/28 36/122/28 38/123/28 64/124/28
f 67/125/29 41/126/29 29/127/29 65/128/29
f 44/129/30 29/130/30 46/131/30
f 24/132/31 25/133/31 43/134/31 42/135/31
f 25/136/32 30/137/32 44/138/32 43/139/32
f 24/140/33 42/141/33 26/142/33
f 29/143/34 44/144/34 30/145/34
f 44/146/35 46/147/35 41/148/35
f 29/149/36 41/150/36 46/151/36
f 40/152/37 26/153/37 45/154/37
f 42/155/38 45/156/38 26/157/38
f 42/158/39 40/159/39 45/160/39
f 87/161/40 47/162/40 50/163/40 88/164/40
f 88/165/41 50/166/41 52/167/41 84/168/41
f 19/48/11 20/50/11 50/169/11 47/170/11
f 82/171/42 19/172/42 47/173/42 87/174/42
f 20/50/11 21/52/11 52/175/11 50/169/11
f 5/176/43 7/177/43 89/178/43 95/179/43
f 55/180/44 53/181/44 56/182/44 58/183/44
f 53/184/45 54/185/45 57/186/45 56/187/45
f 69/188/46 68/189/46 59/190/46 60/191/46
f 70/192/47 69/193/47 60/194/47 61/195/47
f 28/196/48 11/197/48 55/198/48 58/199/48
f 63/200/49 28/201/49 58/202/49 70/203/49
f 9/204/50 8/205/50 54/206/50 53/207/50
f 62/208/51 33/209/51 59/210/51 68/211/51
f 27/212/52 62/213/52 68/214/52 57/215/52
f 31/216/53 63/217/53 70/218/53 61/219/53
f 58/220/54 56/221/54 69/222/54 70/223/54
f 56/224/55 57/225/55 68/226/55 69/227/55
f 34/228/56 67/229/56 65/230/56 39/231/56
f 40/232/57 66/233/57 64/234/57 26/235/57
f 28/236/58 63/237/58 65/238/58 29/239/58
f 26/240/59 64/241/59 62/242/59 27/243/59
f 35/244/60 36/245/60 66/246/60 67/247/60 34/248/60
f 34/249/61 71/250/61 75/251/61 67/252/61
f 35/253/62 72/254/62 71/255/62 34/256/62
f 66/257/63 74/258/63 73/259/63 36/260/63
f 36/261/64 73/262/64 72/263/64 35/264/64
f 42/265/65 43/266/65 77/267/65 76/268/65
f 43/269/66 44/270/66 78/271/66 77/272/66
f 41/273/67 67/274/67 75/275/67 78/276/67 44/277/67
f 66/278/68 40/279/68 42/280/68 76/281/68 74/282/68
f 72/283/69 73/284/69 74/285/69 76/286/69 77/287/69 78/288/69 75/289/69 71/290/69
f 3/291/70 1/292/70 79/293/70 80/294/70
f 5/295/70 3/291/70 80/294/70 81/296/70
f 7/297/70 5/295/70 81/296/70 82/298/70
f 10/299/70 51/300/70 84/301/70 83/302/70
f 12/303/70 10/299/70 83/302/70 85/304/70
f 14/305/70 12/303/70 85/304/70 86/306/70
f 1/292/70 14/305/70 86/306/70 79/293/70
f 49/307/70 48/308/70 87/309/70 88/310/70
f 51/300/70 49/307/70 88/310/70 84/301/70
f 48/308/70 7/297/70 82/298/70 87/309/70
f 91/311/70 90/312/70 92/313/70 96/314/70
f 93/315/70 94/316/70 95/317/70 89/318/70 90/312/70 91/311/70 97/319/70 98/320/70
f 90/312/70 89/318/70 99/321/70 92/313/70
f 51/322/71 10/323/71 91/324/71 96/325/71
f 1/326/72 3/327/72 94/328/72 93/329/72
f 48/330/73 49/331/73 92/332/73 99/333/73
f 10/334/74 12/335/74 97/336/74 91/337/74
f 3/338/75 5/339/75 95/340/75 94/341/75
f 49/342/76 51/343/76 96/344/76 92/345/76
f 12/346/77 14/347/77 98/348/77 97/349/77
