# Blender v2.93.5 OBJ File: 'Metal.blend'
# www.blender.org
mtllib Metal.mtl
o Plane
v -0.620827 0.399655 -5.127184
v -0.620827 -0.399655 -5.127184
v -0.620827 0.399655 5.127184
v -0.620827 -0.399655 5.127184
v 0.620827 -0.399655 5.127184
v 0.620827 0.399655 5.127184
v 0.620827 -0.399655 -5.127184
v 0.620827 0.399655 -5.127184
v -0.620827 0.688532 5.127184
v -0.620827 0.688532 -5.127184
v -0.620827 -0.688532 -5.127184
v -0.620827 -0.688532 5.127184
v 0.620827 -0.688532 -5.127184
v 0.620827 0.688532 -5.127184
v 0.620827 -0.688532 5.127184
v 0.620827 0.688532 5.127184
v -0.880077 0.399655 5.127184
v -0.880077 0.399655 -5.127184
v -0.880077 -0.399655 -5.127184
v -0.880077 -0.399655 5.127184
v 0.880077 -0.399655 5.127184
v 0.880077 -0.399655 -5.127184
v 0.880077 0.399655 -5.127184
v 0.880077 0.399655 5.127184
v -0.880077 0.688532 5.127184
v -0.880077 0.688532 -5.127184
v -0.880077 -0.688532 -5.127184
v -0.880077 -0.688532 5.127184
v 0.880077 -0.688532 5.127184
v 0.880077 -0.688532 -5.127184
v 0.880077 0.688532 -5.127184
v 0.880077 0.688532 5.127184
v 4.534546 1.056037 -5.390284
v 5.079859 0.471630 -5.390284
v -1.069512 -4.173133 1.421644
v -0.524199 -4.757541 1.421644
v 0.078862 -4.194822 2.349743
v -0.466451 -3.610415 2.349743
v 5.682920 1.034349 -4.462184
v 5.137608 1.618757 -4.462184
v -1.266592 -3.961925 1.421644
v 4.337465 1.267246 -5.390284
v 5.276938 0.260421 -5.390284
v -0.327119 -4.968750 1.421644
v 5.880001 0.823141 -4.462184
v 4.940527 1.829966 -4.462184
v 0.275942 -4.406031 2.349743
v -0.663531 -3.399206 2.349743
v -1.195427 -4.290626 1.227863
v 4.408630 0.938545 -5.584064
v 4.953943 0.354138 -5.584064
v -0.650114 -4.875032 1.227863
v 0.204778 -4.077329 2.543525
v 5.808836 1.151842 -4.268403
v 5.263523 1.736249 -4.268403
v -0.340535 -3.492922 2.543525
v -1.392507 -4.079416 1.227863
v 4.211550 1.149754 -5.584064
v 5.151024 0.142929 -5.584064
v -0.453034 -5.086242 1.227863
v 0.401858 -4.288538 2.543525
v 6.005916 0.940633 -4.268403
v 5.066442 1.947458 -4.268403
v -0.537615 -3.281713 2.543525
v 4.806899 0.797517 4.559416
v 4.381989 0.313155 5.032430
v -3.490954 6.639790 3.087846
v -3.915865 6.155428 3.560859
v -3.605210 6.844738 4.545771
v -3.180299 7.329101 4.072756
v 4.692644 1.002465 6.017341
v 5.117555 1.486827 5.544327
v -3.337389 6.814842 2.916895
v 4.960464 0.972569 4.388465
v 4.228423 0.138103 5.203381
v -4.069431 5.980377 3.731810
v 4.539079 0.827413 6.188293
v 5.271121 1.661879 5.373376
v -3.758775 6.669687 4.716721
v -3.026733 7.504152 3.901806
v -3.555817 6.495867 2.882203
v 4.742036 0.653593 4.353773
v 4.317125 0.169232 4.826787
v -3.980727 6.011505 3.355217
v -3.540347 6.988663 4.751414
v 4.757506 1.146388 6.222984
v 5.182418 1.630751 5.749970
v -3.115436 7.473024 4.278400
v -3.402251 6.670919 2.711252
v 4.895602 0.828646 4.182822
v 4.163560 -0.005820 4.997738
v -4.134294 5.836453 3.526168
v -3.693913 6.813611 4.922365
v 4.603941 0.971337 6.393934
v 5.335983 1.805803 5.579020
v -2.961870 7.648077 4.107449
v -5.241833 -7.104548 0.635936
v -5.837141 -6.858045 1.108950
v -2.379548 2.631665 -0.835634
v -2.974856 2.878169 -0.362620
v -2.222250 2.805779 0.622291
v -1.626942 2.559275 0.149277
v -5.084535 -6.930435 2.093860
v -4.489227 -7.176939 1.620847
v -2.164400 2.542577 -1.006585
v -5.026684 -7.193636 0.464985
v -6.052289 -6.768957 1.279901
v -3.190004 2.967258 -0.191669
v -5.299684 -6.841348 2.264812
v -4.274078 -7.266027 1.449896
v -2.437399 2.894867 0.793242
v -1.411794 2.470186 -0.021674
v -2.536688 2.646780 -1.041276
v -5.398973 -7.089434 0.430293
v -5.994280 -6.842930 0.903307
v -3.131995 2.893283 -0.568262
v -2.065110 2.790664 0.827934
v -4.927396 -6.945549 2.299504
v -4.332088 -7.192053 1.826490
v -1.469803 2.544161 0.354920
v -2.321538 2.557691 -1.212227
v -5.183823 -7.178522 0.259342
v -6.209429 -6.753842 1.074259
v -3.347143 2.982371 -0.397311
v -2.280259 2.879753 0.998885
v -5.142545 -6.856462 2.470454
v -4.116940 -7.281141 1.655539
v -1.254654 2.455073 0.183969
vt 0.649719 2.446764
vt 0.346225 2.446764
vt 0.346226 -1.446764
vt 0.649719 -1.446764
vt 2.315608 -0.876879
vt 2.012114 -0.876879
vt 2.012114 -1.348329
vt 2.315608 -1.348329
vt 0.299534 2.446764
vt -0.003960 2.446764
vt -0.003960 -1.446764
vt 0.299534 -1.446764
vt 2.315608 -0.161867
vt 2.012114 -0.161867
vt 2.012114 -0.633316
vt 2.315608 -0.633316
vt 1.757301 2.446764
vt 1.757302 -1.446764
vt 1.855738 -1.446764
vt 1.855737 2.446764
vt 1.902429 -0.161867
vt 1.902429 -0.633316
vt -0.620537 -1.446764
vt -0.149087 -1.446764
vt -0.149088 2.446764
vt -0.620537 2.446764
vt -1.335549 -1.446764
vt -0.864100 -1.446764
vt -0.864101 2.446764
vt -1.335550 2.446764
vt 1.902429 -0.876879
vt 1.902429 -1.348329
vt 1.902429 -1.446764
vt 2.012114 -1.446764
vt -1.433985 2.446764
vt -1.433985 -1.446764
vt 2.425293 -0.633316
vt 2.425293 -0.161867
vt 2.012114 -0.778443
vt 1.902429 -0.778443
vt 2.425293 -1.348329
vt 2.425293 -0.876879
vt 1.165541 2.446764
vt 1.165541 -1.446764
vt 1.275226 -1.446764
vt 1.275226 2.446764
vt 0.696411 2.446764
vt 0.696411 -1.446764
vt 0.806096 -1.446764
vt 0.806096 2.446764
vt 0.962473 -1.446764
vt 0.962473 2.446764
vt 0.852788 2.446764
vt 0.852788 -1.446764
vt 1.118850 -1.446764
vt 1.118850 2.446764
vt 1.009165 2.446764
vt 1.009165 -1.446764
vt 2.425293 -0.778443
vt 2.315608 -0.778443
vt -0.765664 -1.446764
vt -0.765665 2.446764
vt 2.315608 -0.731752
vt 2.425293 -0.731752
vt 2.012114 -0.063431
vt 1.902429 -0.063431
vt -0.718973 2.446764
vt -0.718972 -1.446764
vt 1.902429 -0.731752
vt 2.012114 -0.731752
vt 1.710610 -1.446764
vt 1.710609 2.446764
vt 1.612174 2.446764
vt 1.612174 -1.446764
vt 2.425293 -0.063431
vt 2.315608 -0.063431
vt 1.467046 2.446764
vt 1.467046 -1.446764
vt 1.565482 -1.446764
vt 1.565481 2.446764
vt 2.315608 -1.446764
vt 2.425293 -1.446764
vt 1.420354 -1.446764
vt 1.420353 2.446764
vt 1.321918 2.446764
vt 1.321918 -1.446764
vt -0.050652 -1.446764
vt -0.050652 2.446764
vt 0.649719 2.446764
vt 0.346225 2.446764
vt 0.346226 -1.446764
vt 0.649719 -1.446764
vt 2.315608 -0.876879
vt 2.012114 -0.876879
vt 2.012114 -1.348329
vt 2.315608 -1.348329
vt 0.299534 2.446764
vt -0.003960 2.446764
vt -0.003960 -1.446764
vt 0.299534 -1.446764
vt 2.315608 -0.161867
vt 2.012114 -0.161867
vt 2.012114 -0.633316
vt 2.315608 -0.633316
vt 1.757301 2.446764
vt 1.757302 -1.446764
vt 1.855738 -1.446764
vt 1.855737 2.446764
vt 1.902429 -0.161867
vt 1.902429 -0.633316
vt -0.620537 -1.446764
vt -0.149087 -1.446764
vt -0.149088 2.446764
vt -0.620537 2.446764
vt -1.335549 -1.446764
vt -0.864100 -1.446764
vt -0.864101 2.446764
vt -1.335550 2.446764
vt 1.902429 -0.876879
vt 1.902429 -1.348329
vt 1.902429 -1.446764
vt 2.012114 -1.446764
vt -1.433985 2.446764
vt -1.433985 -1.446764
vt 2.425293 -0.633316
vt 2.425293 -0.161867
vt 2.012114 -0.778443
vt 1.902429 -0.778443
vt 2.425293 -1.348329
vt 2.425293 -0.876879
vt 1.165541 2.446764
vt 1.165541 -1.446764
vt 1.275226 -1.446764
vt 1.275226 2.446764
vt 0.696411 2.446764
vt 0.696411 -1.446764
vt 0.806096 -1.446764
vt 0.806096 2.446764
vt 0.962473 -1.446764
vt 0.962473 2.446764
vt 0.852788 2.446764
vt 0.852788 -1.446764
vt 1.118850 -1.446764
vt 1.118850 2.446764
vt 1.009165 2.446764
vt 1.009165 -1.446764
vt 2.425293 -0.778443
vt 2.315608 -0.778443
vt -0.765664 -1.446764
vt -0.765665 2.446764
vt 2.315608 -0.731752
vt 2.425293 -0.731752
vt 2.012114 -0.063431
vt 1.902429 -0.063431
vt -0.718973 2.446764
vt -0.718972 -1.446764
vt 1.902429 -0.731752
vt 2.012114 -0.731752
vt 1.710610 -1.446764
vt 1.710609 2.446764
vt 1.612174 2.446764
vt 1.612174 -1.446764
vt 2.425293 -0.063431
vt 2.315608 -0.063431
vt 1.467046 2.446764
vt 1.467046 -1.446764
vt 1.565482 -1.446764
vt 1.565481 2.446764
vt 2.315608 -1.446764
vt 2.425293 -1.446764
vt 1.420354 -1.446764
vt 1.420353 2.446764
vt 1.321918 2.446764
vt 1.321918 -1.446764
vt -0.050652 -1.446764
vt -0.050652 2.446764
vt 0.649719 2.446764
vt 0.346225 2.446764
vt 0.346226 -1.446764
vt 0.649719 -1.446764
vt 2.315608 -0.876879
vt 2.012114 -0.876879
vt 2.012114 -1.348329
vt 2.315608 -1.348329
vt 0.299534 2.446764
vt -0.003960 2.446764
vt -0.003960 -1.446764
vt 0.299534 -1.446764
vt 2.315608 -0.161867
vt 2.012114 -0.161867
vt 2.012114 -0.633316
vt 2.315608 -0.633316
vt 1.757301 2.446764
vt 1.757302 -1.446764
vt 1.855738 -1.446764
vt 1.855737 2.446764
vt 1.902429 -0.161867
vt 1.902429 -0.633316
vt -0.620537 -1.446764
vt -0.149087 -1.446764
vt -0.149088 2.446764
vt -0.620537 2.446764
vt -1.335549 -1.446764
vt -0.864100 -1.446764
vt -0.864101 2.446764
vt -1.335550 2.446764
vt 1.902429 -0.876879
vt 1.902429 -1.348329
vt 1.902429 -1.446764
vt 2.012114 -1.446764
vt -1.433985 2.446764
vt -1.433985 -1.446764
vt 2.425293 -0.633316
vt 2.425293 -0.161867
vt 2.012114 -0.778443
vt 1.902429 -0.778443
vt 2.425293 -1.348329
vt 2.425293 -0.876879
vt 1.165541 2.446764
vt 1.165541 -1.446764
vt 1.275226 -1.446764
vt 1.275226 2.446764
vt 0.696411 2.446764
vt 0.696411 -1.446764
vt 0.806096 -1.446764
vt 0.806096 2.446764
vt 0.962473 -1.446764
vt 0.962473 2.446764
vt 0.852788 2.446764
vt 0.852788 -1.446764
vt 1.118850 -1.446764
vt 1.118850 2.446764
vt 1.009165 2.446764
vt 1.009165 -1.446764
vt 2.425293 -0.778443
vt 2.315608 -0.778443
vt -0.765664 -1.446764
vt -0.765665 2.446764
vt 2.315608 -0.731752
vt 2.425293 -0.731752
vt 2.012114 -0.063431
vt 1.902429 -0.063431
vt -0.718973 2.446764
vt -0.718972 -1.446764
vt 1.902429 -0.731752
vt 2.012114 -0.731752
vt 1.710610 -1.446764
vt 1.710609 2.446764
vt 1.612174 2.446764
vt 1.612174 -1.446764
vt 2.425293 -0.063431
vt 2.315608 -0.063431
vt 1.467046 2.446764
vt 1.467046 -1.446764
vt 1.565482 -1.446764
vt 1.565481 2.446764
vt 2.315608 -1.446764
vt 2.425293 -1.446764
vt 1.420354 -1.446764
vt 1.420353 2.446764
vt 1.321918 2.446764
vt 1.321918 -1.446764
vt -0.050652 -1.446764
vt -0.050652 2.446764
vt 0.649719 2.446764
vt 0.346225 2.446764
vt 0.346226 -1.446764
vt 0.649719 -1.446764
vt 2.315608 -0.876879
vt 2.012114 -0.876879
vt 2.012114 -1.348329
vt 2.315608 -1.348329
vt 0.299534 2.446764
vt -0.003960 2.446764
vt -0.003960 -1.446764
vt 0.299534 -1.446764
vt 2.315608 -0.161867
vt 2.012114 -0.161867
vt 2.012114 -0.633316
vt 2.315608 -0.633316
vt 1.757301 2.446764
vt 1.757302 -1.446764
vt 1.855738 -1.446764
vt 1.855737 2.446764
vt 1.902429 -0.161867
vt 1.902429 -0.633316
vt -0.620537 -1.446764
vt -0.149087 -1.446764
vt -0.149088 2.446764
vt -0.620537 2.446764
vt -1.335549 -1.446764
vt -0.864100 -1.446764
vt -0.864101 2.446764
vt -1.335550 2.446764
vt 1.902429 -0.876879
vt 1.902429 -1.348329
vt 1.902429 -1.446764
vt 2.012114 -1.446764
vt -1.433985 2.446764
vt -1.433985 -1.446764
vt 2.425293 -0.633316
vt 2.425293 -0.161867
vt 2.012114 -0.778443
vt 1.902429 -0.778443
vt 2.425293 -1.348329
vt 2.425293 -0.876879
vt 1.165541 2.446764
vt 1.165541 -1.446764
vt 1.275226 -1.446764
vt 1.275226 2.446764
vt 0.696411 2.446764
vt 0.696411 -1.446764
vt 0.806096 -1.446764
vt 0.806096 2.446764
vt 0.962473 -1.446764
vt 0.962473 2.446764
vt 0.852788 2.446764
vt 0.852788 -1.446764
vt 1.118850 -1.446764
vt 1.118850 2.446764
vt 1.009165 2.446764
vt 1.009165 -1.446764
vt 2.425293 -0.778443
vt 2.315608 -0.778443
vt -0.765664 -1.446764
vt -0.765665 2.446764
vt 2.315608 -0.731752
vt 2.425293 -0.731752
vt 2.012114 -0.063431
vt 1.902429 -0.063431
vt -0.718973 2.446764
vt -0.718972 -1.446764
vt 1.902429 -0.731752
vt 2.012114 -0.731752
vt 1.710610 -1.446764
vt 1.710609 2.446764
vt 1.612174 2.446764
vt 1.612174 -1.446764
vt 2.425293 -0.063431
vt 2.315608 -0.063431
vt 1.467046 2.446764
vt 1.467046 -1.446764
vt 1.565482 -1.446764
vt 1.565481 2.446764
vt 2.315608 -1.446764
vt 2.425293 -1.446764
vt 1.420354 -1.446764
vt 1.420353 2.446764
vt 1.321918 2.446764
vt 1.321918 -1.446764
vt -0.050652 -1.446764
vt -0.050652 2.446764
vn -1.0000 0.0000 0.0000
vn 0.0000 0.0000 -1.0000
vn 1.0000 0.0000 0.0000
vn 0.0000 0.0000 1.0000
vn 0.0000 1.0000 0.0000
vn 0.0000 -1.0000 0.0000
vn -0.4857 -0.4532 -0.7475
vn 0.5465 0.5099 -0.6643
vn 0.4857 0.4532 0.7475
vn -0.5465 -0.5099 0.6643
vn -0.6822 0.7311 0.0000
vn 0.6822 -0.7311 -0.0000
vn -0.2502 -0.5552 -0.7932
vn 0.8092 -0.5697 0.1435
vn 0.2502 0.5552 0.7932
vn -0.8092 0.5697 -0.1435
vn 0.5316 0.6060 -0.5918
vn -0.5316 -0.6060 0.5918
vn -0.6061 0.0583 -0.7932
vn -0.2791 -0.9495 0.1435
vn 0.6061 -0.0583 0.7932
vn 0.2791 0.9495 -0.1435
vn 0.7448 -0.3084 -0.5918
vn -0.7448 0.3084 0.5918
usemtl Material.001
s off
f 4/1/1 3/2/1 1/3/1 2/4/1
f 2/5/2 1/6/2 8/7/2 7/8/2
f 7/9/3 8/10/3 6/11/3 5/12/3
f 5/13/4 6/14/4 3/15/4 4/16/4
f 4/17/5 2/18/5 19/19/5 20/20/5
f 3/15/4 6/14/4 16/21/4 9/22/4
f 11/23/6 13/24/6 15/25/6 12/26/6
f 14/27/5 10/28/5 9/29/5 16/30/5
f 8/7/2 1/6/2 10/31/2 14/32/2
f 8/7/2 14/32/2 31/33/2 23/34/2
f 14/27/5 16/30/5 32/35/5 31/36/5
f 5/13/4 4/16/4 12/37/4 15/38/4
f 10/31/2 1/6/2 18/39/2 26/40/2
f 2/5/2 7/8/2 13/41/2 11/42/2
f 22/43/3 21/44/3 29/45/3 30/46/3
f 20/47/1 19/48/1 27/49/1 28/50/1
f 18/51/1 17/52/1 25/53/1 26/54/1
f 24/55/3 23/56/3 31/57/3 32/58/3
f 2/5/2 11/42/2 27/59/2 19/60/2
f 9/29/5 10/28/5 26/61/5 25/62/5
f 12/37/4 4/16/4 20/63/4 28/64/4
f 16/21/4 6/14/4 24/65/4 32/66/4
f 11/23/6 12/26/6 28/67/6 27/68/6
f 3/15/4 9/22/4 25/69/4 17/70/4
f 7/71/5 5/72/5 21/73/5 22/74/5
f 5/13/4 15/38/4 29/75/4 21/76/4
f 6/77/6 8/78/6 23/79/6 24/80/6
f 13/41/2 7/8/2 22/81/2 30/82/2
f 1/83/6 3/84/6 17/85/6 18/86/6
f 15/25/6 13/24/6 30/87/6 29/88/6
f 36/89/7 35/90/7 33/91/7 34/92/7
f 34/93/8 33/94/8 40/95/8 39/96/8
f 39/97/9 40/98/9 38/99/9 37/100/9
f 37/101/10 38/102/10 35/103/10 36/104/10
f 36/105/11 34/106/11 51/107/11 52/108/11
f 35/103/10 38/102/10 48/109/10 41/110/10
f 43/111/12 45/112/12 47/113/12 44/114/12
f 46/115/11 42/116/11 41/117/11 48/118/11
f 40/95/8 33/94/8 42/119/8 46/120/8
f 40/95/8 46/120/8 63/121/8 55/122/8
f 46/115/11 48/118/11 64/123/11 63/124/11
f 37/101/10 36/104/10 44/125/10 47/126/10
f 42/119/8 33/94/8 50/127/8 58/128/8
f 34/93/8 39/96/8 45/129/8 43/130/8
f 54/131/9 53/132/9 61/133/9 62/134/9
f 52/135/7 51/136/7 59/137/7 60/138/7
f 50/139/7 49/140/7 57/141/7 58/142/7
f 56/143/9 55/144/9 63/145/9 64/146/9
f 34/93/8 43/130/8 59/147/8 51/148/8
f 41/117/11 42/116/11 58/149/11 57/150/11
f 44/125/10 36/104/10 52/151/10 60/152/10
f 48/109/10 38/102/10 56/153/10 64/154/10
f 43/111/12 44/114/12 60/155/12 59/156/12
f 35/103/10 41/110/10 57/157/10 49/158/10
f 39/159/11 37/160/11 53/161/11 54/162/11
f 37/101/10 47/126/10 61/163/10 53/164/10
f 38/165/12 40/166/12 55/167/12 56/168/12
f 45/129/8 39/96/8 54/169/8 62/170/8
f 33/171/12 35/172/12 49/173/12 50/174/12
f 47/113/12 45/112/12 62/175/12 61/176/12
f 68/177/13 67/178/13 65/179/13 66/180/13
f 66/181/14 65/182/14 72/183/14 71/184/14
f 71/185/15 72/186/15 70/187/15 69/188/15
f 69/189/16 70/190/16 67/191/16 68/192/16
f 68/193/17 66/194/17 83/195/17 84/196/17
f 67/191/16 70/190/16 80/197/16 73/198/16
f 75/199/18 77/200/18 79/201/18 76/202/18
f 78/203/17 74/204/17 73/205/17 80/206/17
f 72/183/14 65/182/14 74/207/14 78/208/14
f 72/183/14 78/208/14 95/209/14 87/210/14
f 78/203/17 80/206/17 96/211/17 95/212/17
f 69/189/16 68/192/16 76/213/16 79/214/16
f 74/207/14 65/182/14 82/215/14 90/216/14
f 66/181/14 71/184/14 77/217/14 75/218/14
f 86/219/15 85/220/15 93/221/15 94/222/15
f 84/223/13 83/224/13 91/225/13 92/226/13
f 82/227/13 81/228/13 89/229/13 90/230/13
f 88/231/15 87/232/15 95/233/15 96/234/15
f 66/181/14 75/218/14 91/235/14 83/236/14
f 73/205/17 74/204/17 90/237/17 89/238/17
f 76/213/16 68/192/16 84/239/16 92/240/16
f 80/197/16 70/190/16 88/241/16 96/242/16
f 75/199/18 76/202/18 92/243/18 91/244/18
f 67/191/16 73/198/16 89/245/16 81/246/16
f 71/247/17 69/248/17 85/249/17 86/250/17
f 69/189/16 79/214/16 93/251/16 85/252/16
f 70/253/18 72/254/18 87/255/18 88/256/18
f 77/217/14 71/184/14 86/257/14 94/258/14
f 65/259/18 67/260/18 81/261/18 82/262/18
f 79/201/18 77/200/18 94/263/18 93/264/18
f 100/265/19 99/266/19 97/267/19 98/268/19
f 98/269/20 97/270/20 104/271/20 103/272/20
f 103/273/21 104/274/21 102/275/21 101/276/21
f 101/277/22 102/278/22 99/279/22 100/280/22
f 100/281/23 98/282/23 115/283/23 116/284/23
f 99/279/22 102/278/22 112/285/22 105/286/22
f 107/287/24 109/288/24 111/289/24 108/290/24
f 110/291/23 106/292/23 105/293/23 112/294/23
f 104/271/20 97/270/20 106/295/20 110/296/20
f 104/271/20 110/296/20 127/297/20 119/298/20
f 110/291/23 112/294/23 128/299/23 127/300/23
f 101/277/22 100/280/22 108/301/22 111/302/22
f 106/295/20 97/270/20 114/303/20 122/304/20
f 98/269/20 103/272/20 109/305/20 107/306/20
f 118/307/21 117/308/21 125/309/21 126/310/21
f 116/311/19 115/312/19 123/313/19 124/314/19
f 114/315/19 113/316/19 121/317/19 122/318/19
f 120/319/21 119/320/21 127/321/21 128/322/21
f 98/269/20 107/306/20 123/323/20 115/324/20
f 105/293/23 106/292/23 122/325/23 121/326/23
f 108/301/22 100/280/22 116/327/22 124/328/22
f 112/285/22 102/278/22 120/329/22 128/330/22
f 107/287/24 108/290/24 124/331/24 123/332/24
f 99/279/22 105/286/22 121/333/22 113/334/22
f 103/335/23 101/336/23 117/337/23 118/338/23
f 101/277/22 111/302/22 125/339/22 117/340/22
f 102/341/24 104/342/24 119/343/24 120/344/24
f 109/305/20 103/272/20 118/345/20 126/346/20
f 97/347/24 99/348/24 113/349/24 114/350/24
f 111/289/24 109/288/24 126/351/24 125/352/24
